<svg id="Capa_1" enable-background="new 0 0 511.638 511.638" height="512" viewBox="0 0 511.638 511.638" width="512" xmlns="http://www.w3.org/2000/svg"><g><path d="m410.451 228.788c-5.861 5.901-15.371 5.869-21.21.05l-66.49-66.2c-44.443 61.305-1.589 150.57 77.07 150.57 52.48 0 95-42.48 95-95 0-78.641-89.417-121.781-150.9-76.83l66.48 66.2c5.87 5.85 5.89 15.34.05 21.21z"/><path d="m133.511 431.638c-13.274 0-20.071-16.149-10.61-25.61l66.34-66.33c-37.12-26.93-89.48-23.66-122.91 9.76-59.891 59.907-16.9 162.14 67.18 162.14 77.413 0 122.378-88.035 76.94-150.69l-66.34 66.34c-2.93 2.93-6.76 4.39-10.6 4.39z"/><path d="m507.477 401.863-34.56-42.667c-3.857-4.762-10.224-6.699-16.08-4.891-86.523 26.704-51.515 16.961-154.692 42.437-5.133 1.268-9.22 5.144-10.757 10.203l-25.92 85.333c-2.924 9.625 4.289 19.36 14.353 19.36h216c8.284 0 15-6.716 15-15v-85.333c0-3.438-1.181-6.771-3.344-9.442z"/><path d="m285.536 285.823c5.858-5.858 5.858-15.355 0-21.213l-40.861-40.861c0-91.944.128-85.115-.29-87.226-1.215-6.135-3.819-7.393-21.781-25.355l24.174-24.174c.117.117-.956-.951 75.974 75.644 5.883-8.129 13.051-15.335 21.17-21.26l-137.6-137.01c-3.71-3.68-9.06-5.18-14.13-3.94l-68.83 16.75c-8.04 1.96-12.98 10.07-11.02 18.12s10.07 12.99 18.12 11.03l60.65-14.76 34.408 34.258-24.13 24.128-17.678-17.678c-6.902-6.902-18.456-5.466-23.469 2.889l-50.912 84.853c-3.542 5.902-2.611 13.457 2.256 18.324l28.991 28.991-58.044 58.044-71.673 25.103c-7.818 2.738-11.937 11.296-9.198 19.115 2.164 6.178 7.961 10.046 14.156 10.046 3.609 0-.585 1.094 70.708-23.876 1.93.221-6.504.617 92.048-5.18l29.888 29.888c-11.368 11.368-7.863 7.863-19.224 19.224 8.239 5.958 15.461 13.261 21.21 21.21 16.658-16.656 59.357-59.355 75.087-75.084zm-70.862-110.158v48.083l-36.828 36.828-51.089 3.005c11.111-11.109 78.381-78.38 87.917-87.916z"/></g></svg>